<svg xmlns="http://www.w3.org/2000/svg" width="333" height="325.076" viewBox="0 0 333 325.076">
  <g id="about" transform="translate(-113.8 -19.5)">
    <g id="Groupe_33" data-name="Groupe 33" transform="translate(113.8 19.5)">
      <g id="Groupe_23" data-name="Groupe 23" transform="translate(71.625 19.728)">
        <path id="Tracé_37" data-name="Tracé 37" d="M246.257,29.042c-52.546,2.085-95.5,44.622-98,97.168a102.714,102.714,0,0,0,35.239,82.364c15.847,13.762,25.439,33.363,25.439,54.423v11.051h82.781V263.623c0-20.852,8.758-40.869,24.6-54.214A102.123,102.123,0,0,0,352.6,131.424C352.6,73.456,304.433,26.748,246.257,29.042Zm3.753,178.7a77.568,77.568,0,1,1,77.568-77.568A77.555,77.555,0,0,1,250.01,207.74Z" transform="translate(-148.15 -28.961)" fill="#f0f5f7"/>
        <circle id="Ellipse_2" data-name="Ellipse 2" cx="8.966" cy="8.966" r="8.966" transform="translate(24.709 211.099)" fill="#f0f5f7"/>
      </g>
      <path id="Tracé_38" data-name="Tracé 38" d="M255.746,30.555V52.45h-36.49V30.555h36.49M262,24.3H213V58.705h49V24.3Z" transform="translate(-6.152 -14.291)" fill="#191919"/>
      <g id="Groupe_24" data-name="Groupe 24" transform="translate(23.771 170.775)">
        <path id="Tracé_39" data-name="Tracé 39" d="M156.269,107.655a24.813,24.813,0,1,1-24.813,24.813,24.873,24.873,0,0,1,24.813-24.813m0-6.255a31.069,31.069,0,1,0,31.069,31.069A31.147,31.147,0,0,0,156.269,101.4Z" transform="translate(-125.2 -101.4)" fill="#191919"/>
        <path id="Tracé_40" data-name="Tracé 40" d="M135.9,111.2v21.269l17.724-10.009Z" transform="translate(-113.589 -90.765)" fill="#191919"/>
      </g>
      <g id="Groupe_25" data-name="Groupe 25" transform="translate(123.858 261.688)">
        <path id="Tracé_41" data-name="Tracé 41" d="M269.743,165.852a3.128,3.128,0,0,0,0-6.255h-7.3v-8.341h7.3a3.128,3.128,0,1,0,0-6.255H176.328a3.128,3.128,0,1,0,0,6.255h7.3V159.6h-7.3a3.128,3.128,0,1,0,0,6.255h7.3v8.341h-7.3a3.128,3.128,0,0,0,0,6.255h7.3v8.341h-7.3a3.128,3.128,0,1,0,0,6.255h93.415a3.128,3.128,0,1,0,0-6.255h-7.3v-8.341h7.3a3.128,3.128,0,0,0,0-6.255h-7.3v-8.341Zm-79.653-14.6h66.1V159.6H189.881v-8.341Zm66.1,37.533H189.881v-8.341h66.308Zm0-14.6H189.881v-8.341h66.308Z" transform="translate(-173.2 -145)" fill="#191919"/>
        <path id="Tracé_42" data-name="Tracé 42" d="M233.284,172.4H187.828a3.128,3.128,0,1,0,0,6.255h45.456a3.207,3.207,0,0,0,3.128-3.128A3.071,3.071,0,0,0,233.284,172.4Z" transform="translate(-160.721 -115.267)" fill="#191919"/>
      </g>
      <g id="Groupe_26" data-name="Groupe 26" transform="translate(17.307)">
        <circle id="Ellipse_3" data-name="Ellipse 3" cx="20.643" cy="20.643" r="20.643" transform="translate(97.168)" fill="#6c5ce7"/>
        <path id="Tracé_43" data-name="Tracé 43" d="M212.8,42.1H122.1V97.774h9.383v14.6l14.8-14.6H212.8Z" transform="translate(-122.1 5.025)" fill="#6c5ce7"/>
        <rect id="Rectangle_27" data-name="Rectangle 27" width="81.738" height="54.214" transform="translate(220.818 174.528)" fill="#6c5ce7"/>
      </g>
      <g id="Groupe_27" data-name="Groupe 27" transform="translate(244.798 180.158)">
        <path id="Tracé_44" data-name="Tracé 44" d="M319.4,166.37H234.328a3.128,3.128,0,1,1,0-6.255h78.819V109.028a3.128,3.128,0,0,1,6.255,0Z" transform="translate(-231.2 -105.9)" fill="#fff"/>
        <path id="Tracé_45" data-name="Tracé 45" d="M299.206,139.482,272.724,113l-14.6,14.6-5.421-5.421L235.4,139.482h63.806Z" transform="translate(-226.642 -98.195)" fill="#fff"/>
        <circle id="Ellipse_4" data-name="Ellipse 4" cx="5.63" cy="5.63" r="5.63" transform="translate(26.064 6.673)" fill="#fff"/>
      </g>
      <g id="Groupe_28" data-name="Groupe 28" transform="translate(286.918 68.602)">
        <path id="Tracé_46" data-name="Tracé 46" d="M294.563,69.5c-1.043-3.336-5.213-10.009-13.345-10.009-4.587,0-4.8-6.255-4.8-7.09h-6.255V85.346a12.738,12.738,0,0,0-6.255-1.668,12.511,12.511,0,1,0,12.511,12.511V64.7a10.873,10.873,0,0,0,4.8,1.043c5.421,0,7.3,5.421,7.3,5.63a3.3,3.3,0,0,0,3.962,2.085A3.127,3.127,0,0,0,294.563,69.5Zm-30.652,33.154a6.273,6.273,0,0,1-6.255-6.255,6.255,6.255,0,1,1,12.511,0A6.273,6.273,0,0,1,263.911,102.652Z" transform="translate(-251.4 -52.4)" fill="#6c5ce7"/>
      </g>
      <g id="Groupe_29" data-name="Groupe 29" transform="translate(0 64.64)">
        <path id="Tracé_47" data-name="Tracé 47" d="M185.738,56.755h-68.81a3.128,3.128,0,1,1,0-6.255h68.81a3.128,3.128,0,1,1,0,6.255Z" transform="translate(-113.8 -50.5)" fill="#fff"/>
        <path id="Tracé_48" data-name="Tracé 48" d="M170.329,63.555h-39.2a3.128,3.128,0,1,1,0-6.255h39.2a3.128,3.128,0,1,1,0,6.255Z" transform="translate(-98.391 -43.121)" fill="#fff"/>
      </g>
      <g id="Groupe_30" data-name="Groupe 30" transform="translate(105.301 65.474)">
        <path id="Tracé_49" data-name="Tracé 49" d="M203.292,63.411a7.409,7.409,0,0,0-2.085-.417H201c-.626,0-1.46-.209-2.085-.209h0a15.173,15.173,0,0,0-15.222,15.222h0A8.552,8.552,0,0,0,183.9,80.3v.209h-.417A15.809,15.809,0,0,0,169.3,96.148a17.068,17.068,0,0,0,2.5,8.549,14.486,14.486,0,0,0-7.507,12.928,14.9,14.9,0,0,0,7.507,12.928,15.218,15.218,0,0,0-2.5,8.549,15.809,15.809,0,0,0,14.179,15.639h.417v.209c0,.626-.209,1.46-.209,2.294h0a15.173,15.173,0,0,0,15.222,15.222h0a6.428,6.428,0,0,0,2.085-.209h.209c.834-.209,1.46-.209,2.085-.417a15.127,15.127,0,0,0,30.026-2.711V66.122a15.127,15.127,0,0,0-30.026-2.711Z" transform="translate(-164.3 -50.9)" fill="#9cdd05"/>
        <path id="Tracé_50" data-name="Tracé 50" d="M217.322,50.9A15.307,15.307,0,0,0,202.1,66.122V169.129a15.307,15.307,0,0,0,15.222,15.222,15.02,15.02,0,0,0,14.8-12.511,7.409,7.409,0,0,0,2.085.417h.209c.626,0,1.46.209,2.085.209h0a15.173,15.173,0,0,0,15.222-15.222h0a8.552,8.552,0,0,0-.209-2.294v-.209h.417A15.809,15.809,0,0,0,266.114,139.1a17.068,17.068,0,0,0-2.5-8.549,14.486,14.486,0,0,0,7.507-12.928,14.9,14.9,0,0,0-7.507-12.928,15.218,15.218,0,0,0,2.5-8.549,15.809,15.809,0,0,0-14.179-15.639h-.417V80.3c0-.626.209-1.46.209-2.294h0a15.173,15.173,0,0,0-15.222-15.222h0a6.429,6.429,0,0,0-2.085.209h-.209c-.834.209-1.46.209-2.085.417A14.858,14.858,0,0,0,217.322,50.9Z" transform="translate(-123.281 -50.9)" fill="#9cdd05"/>
      </g>
      <g id="Groupe_31" data-name="Groupe 31" transform="translate(91.747 49.835)">
        <path id="Tracé_51" data-name="Tracé 51" d="M187.913,79.2A14.951,14.951,0,0,0,172.9,94.213a3.128,3.128,0,1,0,6.255,0,8.811,8.811,0,0,1,8.758-8.758,3.128,3.128,0,1,0,0-6.255Z" transform="translate(-141.414 -4.551)" fill="#191919"/>
        <path id="Tracé_52" data-name="Tracé 52" d="M214.933,43.4a18.164,18.164,0,0,0-17.1,11.885,10.152,10.152,0,0,0-2.5-.209,18.244,18.244,0,0,0-18.349,18.349A18.775,18.775,0,0,0,162.8,91.567a19.735,19.735,0,0,0,1.668,7.715,17.962,17.962,0,0,0,0,27.941,19.735,19.735,0,0,0-1.668,7.715,18.6,18.6,0,0,0,14.179,18.141,18.512,18.512,0,0,0,18.349,18.349,10.152,10.152,0,0,0,2.5-.209,18.305,18.305,0,0,0,35.448-6.464V61.749A18.512,18.512,0,0,0,214.933,43.4Zm12.094,121.356a12.094,12.094,0,1,1-12.094-12.094,3.128,3.128,0,1,0,0-6.255,18.376,18.376,0,0,0-18.349,18.349v.209h-1.251a12.159,12.159,0,0,1-12.094-11.677,18.558,18.558,0,0,0,7.924-2.5,3.183,3.183,0,0,0-3.336-5.421,13.544,13.544,0,0,1-6.464,1.668,12.548,12.548,0,0,1-12.511-12.511,11.222,11.222,0,0,1,.834-4.587,17.877,17.877,0,0,0,5.63,1.043,3.128,3.128,0,0,0,0-6.255,11.677,11.677,0,1,1,0-23.354,3.128,3.128,0,0,0,0-6.255,15.92,15.92,0,0,0-5.63,1.043,11.221,11.221,0,0,1-.834-4.587,12.548,12.548,0,0,1,12.511-12.511,14.192,14.192,0,0,1,6.464,1.668,3.183,3.183,0,0,0,3.336-5.421,16.913,16.913,0,0,0-7.924-2.5,12.159,12.159,0,0,1,12.094-11.677h1.251v.208a18.376,18.376,0,0,0,18.349,18.349,3.207,3.207,0,0,0,3.128-3.128,2.866,2.866,0,0,0-3.128-2.711,12.094,12.094,0,1,1,12.094-12.094V84.895c0,4.17-6.672,10.426-11.051,10.426a3.128,3.128,0,1,0,0,6.255c3.753,0,7.715-2.085,11.051-5v33.363c-3.336-2.919-7.3-5-11.051-5a3.128,3.128,0,1,0,0,6.255c4.379,0,11.051,6.255,11.051,10.426v23.145Z" transform="translate(-157.8 -43.4)" fill="#191919"/>
        <path id="Tracé_53" data-name="Tracé 53" d="M187.913,77.685a8.811,8.811,0,0,1-8.758-8.758,3.128,3.128,0,0,0-6.255,0,14.951,14.951,0,0,0,15.013,15.013,3.128,3.128,0,1,0,0-6.255Z" transform="translate(-141.414 -19.092)" fill="#191919"/>
        <path id="Tracé_54" data-name="Tracé 54" d="M211.128,79.2a3.128,3.128,0,1,0,0,6.255,8.811,8.811,0,0,1,8.758,8.758,3.128,3.128,0,1,0,6.255,0A14.95,14.95,0,0,0,211.128,79.2Z" transform="translate(-103.325 -4.551)" fill="#191919"/>
        <path id="Tracé_55" data-name="Tracé 55" d="M271.183,113.253a18.359,18.359,0,0,0-6.673-13.971,19.735,19.735,0,0,0,1.668-7.715A18.6,18.6,0,0,0,252,73.426,18.512,18.512,0,0,0,233.65,55.077a10.152,10.152,0,0,0-2.5.209A18.305,18.305,0,0,0,195.7,61.749V164.756a18.376,18.376,0,0,0,18.349,18.349,18.164,18.164,0,0,0,17.1-11.885,10.152,10.152,0,0,0,2.5.209A18.376,18.376,0,0,0,252,153.079a18.775,18.775,0,0,0,14.179-18.141,19.735,19.735,0,0,0-1.668-7.715A17.7,17.7,0,0,0,271.183,113.253Zm-11.26,21.477a12.548,12.548,0,0,1-12.511,12.511,14.192,14.192,0,0,1-6.464-1.668,3.183,3.183,0,0,0-3.336,5.421,16.913,16.913,0,0,0,7.924,2.5,12.159,12.159,0,0,1-12.094,11.677H232.19v-.209a18.376,18.376,0,0,0-18.349-18.349,3.128,3.128,0,0,0,0,6.255,12.094,12.094,0,1,1-12.094,12.094V141.611c0-4.17,6.673-10.426,11.051-10.426a3.128,3.128,0,1,0,0-6.255c-3.753,0-7.715,2.085-11.051,5V96.572c3.336,2.919,7.3,5,11.051,5a3.128,3.128,0,0,0,0-6.255c-4.379,0-11.051-6.255-11.051-10.426V61.749a12.094,12.094,0,1,1,12.094,12.094,3.128,3.128,0,0,0,0,6.255A18.376,18.376,0,0,0,232.19,61.749v-.209h1.251a12.159,12.159,0,0,1,12.094,11.677,18.558,18.558,0,0,0-7.924,2.5,3.183,3.183,0,1,0,3.336,5.421,13.544,13.544,0,0,1,6.464-1.668,12.548,12.548,0,0,1,12.511,12.511,11.222,11.222,0,0,1-.834,4.587,17.877,17.877,0,0,0-5.63-1.043,3.128,3.128,0,1,0,0,6.255,11.677,11.677,0,1,1,0,23.354,3.128,3.128,0,1,0,0,6.255,15.92,15.92,0,0,0,5.63-1.043A9.672,9.672,0,0,1,259.923,134.73Z" transform="translate(-116.672 -43.4)" fill="#191919"/>
        <path id="Tracé_56" data-name="Tracé 56" d="M223.113,65.8a3.207,3.207,0,0,0-3.128,3.128,8.811,8.811,0,0,1-8.758,8.758,3.128,3.128,0,1,0,0,6.255,14.951,14.951,0,0,0,15.013-15.013A3.207,3.207,0,0,0,223.113,65.8Z" transform="translate(-103.216 -19.092)" fill="#191919"/>
      </g>
      <g id="Groupe_32" data-name="Groupe 32" transform="translate(73.606 21.477)">
        <path id="Tracé_57" data-name="Tracé 57" d="M186.2,49.609A20.808,20.808,0,0,0,206.839,29.8,99.167,99.167,0,0,0,171.6,43.354,20.849,20.849,0,0,0,186.2,49.609Z" transform="translate(-124.684 -29.8)" fill="#a29bfe"/>
        <path id="Tracé_58" data-name="Tracé 58" d="M251.354,103.2H228v26.9c.626-.417,1.043-1.043,1.668-1.46A105.561,105.561,0,0,0,251.354,103.2Z" transform="translate(-63.481 49.851)" fill="#a29bfe"/>
        <path id="Tracé_59" data-name="Tracé 59" d="M172.037,92.978A18.762,18.762,0,0,1,182.254,76.3a18.342,18.342,0,0,0,1.251-2.085V42.1H179.96A102.228,102.228,0,0,0,149.1,97.565h23.771A11.221,11.221,0,0,1,172.037,92.978Z" transform="translate(-149.1 -16.453)" fill="#a29bfe"/>
        <path id="Tracé_60" data-name="Tracé 60" d="M195.843,117.079a17.922,17.922,0,0,0,5-.834A79.5,79.5,0,0,1,185,112.7,15.843,15.843,0,0,0,195.843,117.079Z" transform="translate(-110.143 60.16)" fill="#c2fb3b"/>
        <path id="Tracé_61" data-name="Tracé 61" d="M213.632,120.985a15.009,15.009,0,0,0,14.8-11.885,82.285,82.285,0,0,1-22.937,9.592A15.4,15.4,0,0,0,213.632,120.985Z" transform="translate(-87.897 56.253)" fill="#c2fb3b"/>
        <path id="Tracé_62" data-name="Tracé 62" d="M216.8,129.735c.626.209,1.043.209,1.668.417h.209c.626,0,1.46.209,2.085.209h0a15.173,15.173,0,0,0,15.222-15.222h0a8.553,8.553,0,0,0-.209-2.294v-.209h.417A15.809,15.809,0,0,0,250.371,97a14.087,14.087,0,0,0-1.877-7.3C243.073,106.381,231.6,120.352,216.8,129.735Z" transform="translate(-75.635 35.201)" fill="#c2fb3b"/>
        <path id="Tracé_63" data-name="Tracé 63" d="M238.655,87.241a14.24,14.24,0,0,0-2.711-8.341A73.664,73.664,0,0,1,232.4,99.335,14.926,14.926,0,0,0,238.655,87.241Z" transform="translate(-58.706 23.481)" fill="#c2fb3b"/>
      </g>
    </g>
  </g>
</svg>
